<svg xmlns="http://www.w3.org/2000/svg" viewBox="0 0 512 512">
  <rect width="512" height="512" rx="120" fill="#6b21a8"/>
  <path d="M369.6 144.8c-2.4-10.4-12.8-16.8-23.2-14.4l-136 32c-8.8 2.4-14.4 10.4-14.4 19.2V328.8c-12.8-9.6-29.6-14.4-48-11.2c-38.4 6.4-64 42.4-57.6 80.8s42.4 64 80.8 57.6c32.8-5.6 57.6-32.8 60.8-64.8V230.4l112-26.4v64.8c-12.8-9.6-29.6-14.4-48-11.2c-38.4 6.4-64 42.4-57.6 80.8s42.4 64 80.8 57.6c32.8-5.6 57.6-32.8 60.8-64.8V160c0-7.2-4.8-13.6-11.6-15.2z" fill="white"/>
  <path d="M320 80C320 80 340 60 360 80C380 100 360 120 360 120" stroke="#16a34a" stroke-width="20" stroke-linecap="round" fill="none" opacity="0"/>
</svg>
