<?xml version="1.0" encoding="UTF-8" standalone="no"?>
<svg
   xmlns:dc="http://purl.org/dc/elements/1.1/"
   xmlns:cc="http://creativecommons.org/ns#"
   xmlns:rdf="http://www.w3.org/1999/02/22-rdf-syntax-ns#"
   xmlns:svg="http://www.w3.org/2000/svg"
   xmlns="http://www.w3.org/2000/svg"
   xmlns:sodipodi="http://sodipodi.sourceforge.net/DTD/sodipodi-0.dtd"
   xmlns:inkscape="http://www.inkscape.org/namespaces/inkscape"
   version="1.1"
   id="Layer_1"
   x="0px"
   y="0px"
   width="541.24px"
   height="419.359px"
   viewBox="0 0 541.24 419.359"
   enable-background="new 0 0 541.24 419.359"
   xml:space="preserve"
   sodipodi:docname="Televisa (2016) Blue.svg"
   inkscape:version="1.0.2 (e86c870879, 2021-01-15, custom)"><metadata
   id="metadata70"><rdf:RDF><cc:Work
       rdf:about=""><dc:format>image/svg+xml</dc:format><dc:type
         rdf:resource="http://purl.org/dc/dcmitype/StillImage" /><dc:title></dc:title></cc:Work></rdf:RDF></metadata><defs
   id="defs68" /><sodipodi:namedview
   pagecolor="#ffffff"
   bordercolor="#666666"
   borderopacity="1"
   objecttolerance="10"
   gridtolerance="10"
   guidetolerance="10"
   inkscape:pageopacity="0"
   inkscape:pageshadow="2"
   inkscape:window-width="1440"
   inkscape:window-height="837"
   id="namedview66"
   showgrid="false"
   inkscape:zoom="1.4872476"
   inkscape:cx="270.62"
   inkscape:cy="209.6795"
   inkscape:window-x="-8"
   inkscape:window-y="-8"
   inkscape:window-maximized="1"
   inkscape:current-layer="Layer_1" />
<g
   id="g1352"><g
     id="g1326"><path
       d="M 25.725,349.40954 H 0.00177591 V 325.87252 H 79.73426 v 23.53702 H 54.012039 V 417.687 H 25.725 Z"
       id="path72"
       style="mix-blend-mode:normal;fill:#152a72;fill-rule:nonzero;stroke:none;stroke-width:1.2246;stroke-linecap:butt;stroke-linejoin:miter;stroke-miterlimit:10;stroke-dasharray:none;stroke-dashoffset:0" /><path
       d="m 118.97556,376.79591 c 0,-6.17495 -4.63468,-11.1971 -11.19823,-11.1971 -7.57347,0 -11.960166,3.99132 -13.11409,11.1971 z m -24.438313,13.23176 c 0.639958,7.60471 5.018659,13.0098 12.987093,13.0098 4.12072,0 8.62441,-1.55874 10.67526,-4.7612 h 23.78935 c -5.13864,14.38857 -19.15467,21.08243 -34.33563,21.08243 -21.348524,0 -37.42141,-12.60787 -37.42141,-34.84411 0,-19.42471 14.143017,-35.23805 35.23557,-35.23805 26.49216,0 37.94037,14.7785 37.94037,40.75112 z"
       id="path74"
       style="mix-blend-mode:normal;fill:#152a72;fill-rule:nonzero;stroke:none;stroke-width:1.2246;stroke-linecap:butt;stroke-linejoin:miter;stroke-miterlimit:10;stroke-dasharray:none;stroke-dashoffset:0" /><path
       d="m 155.87801,325.87252 h 25.46924 V 417.687 h -25.46924 z"
       id="path76"
       style="mix-blend-mode:normal;fill:#152a72;fill-rule:nonzero;stroke:none;stroke-width:1.2246;stroke-linecap:butt;stroke-linejoin:miter;stroke-miterlimit:10;stroke-dasharray:none;stroke-dashoffset:0" /><path
       d="m 242.42403,376.79591 c 0,-6.17495 -4.62968,-11.1971 -11.18823,-11.1971 -7.58548,0 -11.96218,3.99132 -13.11609,11.1971 z m -24.43032,13.23176 c 0.63696,7.60471 5.02066,13.0098 12.99111,13.0098 4.11871,0 8.62039,-1.55874 10.66725,-4.7612 h 23.79336 c -5.14665,14.38857 -19.15268,21.08243 -34.33563,21.08243 -21.33852,0 -37.41941,-12.60787 -37.41941,-34.84411 0,-19.42471 14.14301,-35.23805 35.23756,-35.23805 26.49417,0 37.93838,14.7785 37.93838,40.75112 z"
       id="path78"
       style="mix-blend-mode:normal;fill:#152a72;fill-rule:nonzero;stroke:none;stroke-width:1.2246;stroke-linecap:butt;stroke-linejoin:miter;stroke-miterlimit:10;stroke-dasharray:none;stroke-dashoffset:0" /><path
       d="m 323.19244,417.688 h -30.10692 l -21.85549,-66.74071 h 26.87914 l 10.41529,40.63813 h 0.25398 l 10.56327,-40.63813 h 25.9752 z"
       id="path80"
       style="mix-blend-mode:normal;fill:#152a72;fill-rule:nonzero;stroke:none;stroke-width:1.2246;stroke-linecap:butt;stroke-linejoin:miter;stroke-miterlimit:10;stroke-dasharray:none;stroke-dashoffset:0" /><path
       d="m 354.71326,350.94728 h 25.42824 v 66.74071 h -25.42824 z m 25.42825,-7.20578 h -25.42824 v -17.86799 h 25.42824 z"
       id="path82"
       style="mix-blend-mode:normal;fill:#152a72;fill-rule:nonzero;stroke:none;stroke-width:1.2246;stroke-linecap:butt;stroke-linejoin:miter;stroke-miterlimit:10;stroke-dasharray:none;stroke-dashoffset:0" /><path
       d="m 433.92679,370.36301 c -0.12499,-2.18763 -1.28891,-3.86236 -2.9628,-5.01516 -1.53689,-1.29278 -3.61275,-1.91367 -5.63061,-1.91367 -3.60175,0 -7.73346,0.75786 -7.73346,5.12014 0,1.93867 1.54889,2.83752 2.9688,3.48741 4.2577,1.8047 13.88204,2.31261 22.37745,5.13613 8.46641,2.69854 15.9349,7.72169 15.9349,18.64284 0,18.51787 -17.74677,23.53702 -33.92965,23.53702 -15.71591,0 -32.94272,-6.30393 -33.33369,-23.53702 h 24.31832 c 0.11903,2.32961 1.15592,4.23728 3.08579,5.91101 1.29291,1.1638 3.73974,1.92967 6.81952,1.92967 3.31977,0 8.60841,-1.27278 8.60841,-5.13213 0,-3.86035 -2.19485,-5.01915 -14.00703,-7.0728 -19.41266,-3.34943 -27.27512,-9.51439 -27.27512,-20.96346 0,-16.85215 18.12974,-21.21741 31.53282,-21.21741 14.37801,0 31.72981,3.98332 32.36477,21.08644 h -23.1384 z"
       id="path84"
       style="mix-blend-mode:normal;fill:#152a72;fill-rule:nonzero;stroke:none;stroke-width:1.2246;stroke-linecap:butt;stroke-linejoin:miter;stroke-miterlimit:10;stroke-dasharray:none;stroke-dashoffset:0" /><path
       d="m 513.67428,393.89502 v -6.17695 c -3.08379,1.54873 -6.57055,2.44758 -10.05231,3.22246 -5.65861,1.27878 -8.59741,2.70854 -8.59741,7.21178 0,3.07348 3.32376,6.15496 7.95844,6.15496 5.7946,0 10.30929,-3.47241 10.69026,-10.41224 z m 24.4283,-18.50887 v 27.38236 c 0,5.02515 0.26598,10.67419 3.10178,14.91948 h -25.9822 c -0.63996,-1.79969 -1.03093,-4.49923 -0.90194,-6.31493 h -0.26399 c -5.40462,6.19395 -13.26508,7.98665 -21.46751,7.98665 -12.89011,0 -23.54137,-6.17097 -23.54137,-20.19759 0,-21.08442 24.69829,-20.30956 37.67939,-22.75615 3.46976,-0.64789 6.94652,-1.65372 6.94652,-5.91101 0,-4.50124 -4.24771,-6.18496 -8.36843,-6.18496 -7.85845,0 -9.37635,3.98733 -9.50334,6.82885 h -23.65836 c 0.75395,-18.78582 18.50672,-21.8613 34.32363,-21.8613 31.90278,0 31.63681,13.24976 31.63681,26.10859 z"
       id="path86"
       style="mix-blend-mode:normal;fill:#152a72;fill-rule:nonzero;stroke:none;stroke-width:1.2246;stroke-linecap:butt;stroke-linejoin:miter;stroke-miterlimit:10;stroke-dasharray:none;stroke-dashoffset:0" /></g><g
     id="g1308"><path
       d="m 120.40557,42.475552 c 7.35149,-4.432253 15.04942,-8.670294 23.10387,-12.63263 h 73.284 c -7.37053,3.536356 -14.33976,7.775059 -20.81888,12.63263 z"
       id="path90"
       style="mix-blend-mode:normal;fill:#003380;fill-rule:nonzero;stroke:none;stroke-width:1.2246;stroke-linecap:butt;stroke-linejoin:miter;stroke-miterlimit:10;stroke-dasharray:none;stroke-dashoffset:0" /><path
       d="M 73.924408,78.354252 C 80.532946,71.449424 88.081595,64.873299 96.374029,58.617354 h 81.898641 c -5.49088,6.064635 -10.38863,12.675501 -14.61031,19.736898 z"
       id="path92"
       style="mix-blend-mode:normal;fill:#003380;fill-rule:nonzero;stroke:none;stroke-width:1.2246;stroke-linecap:butt;stroke-linejoin:miter;stroke-miterlimit:10;stroke-dasharray:none;stroke-dashoffset:0" /><path
       d="m 48.203535,120.40183 c 2.915795,-10.02031 7.791989,-19.48148 14.268546,-28.420966 h 94.147789 c -3.95313,8.969216 -6.88221,18.491166 -8.63027,28.420966 z"
       id="path94"
       style="mix-blend-mode:normal;fill:#003380;fill-rule:nonzero;stroke:none;stroke-width:1.2246;stroke-linecap:butt;stroke-linejoin:miter;stroke-miterlimit:10;stroke-dasharray:none;stroke-dashoffset:0" /><path
       d="m 47.896917,162.74623 c -1.827879,-6.62388 -2.806457,-13.4879 -2.806457,-20.61369 0,-3.18146 0.210924,-6.30766 0.585902,-9.38513 H 146.44674 c -0.23074,3.09662 -0.35154,6.22366 -0.35154,9.37927 0,7.0252 0.59245,13.91192 1.71081,20.61956 z"
       id="path96"
       style="mix-blend-mode:normal;fill:#003380;fill-rule:nonzero;stroke:none;stroke-width:1.2246;stroke-linecap:butt;stroke-linejoin:miter;stroke-miterlimit:10;stroke-dasharray:none;stroke-dashoffset:0" /><path
       d="m 72.612001,204.47356 c -9.17637,-9.83134 -16.428455,-20.33455 -21.182134,-31.57864 h 98.500993 c 2.85105,11.21202 7.22576,21.81487 12.88778,31.57864 z"
       id="path98"
       style="mix-blend-mode:normal;fill:#003380;fill-rule:nonzero;stroke:none;stroke-width:1.2246;stroke-linecap:butt;stroke-linejoin:miter;stroke-miterlimit:10;stroke-dasharray:none;stroke-dashoffset:0" /><path
       d="m 136.93959,251.01646 c -7.56747,-3.95833 -14.81941,-8.14361 -21.73093,-12.49788 -12.54813,-7.90266 -23.999808,-16.35057 -33.853121,-25.39805 h 86.968591 c 10.86308,15.6149 25.20966,28.62011 41.91703,37.89593 z"
       id="path100"
       style="mix-blend-mode:normal;fill:#003380;fill-rule:nonzero;stroke:none;stroke-width:1.2246;stroke-linecap:butt;stroke-linejoin:miter;stroke-miterlimit:10;stroke-dasharray:none;stroke-dashoffset:0" /><path
       d="m 394.80457,255.77347 c -35.17757,16.85715 -76.80682,28.42098 -124.19455,28.42098 -47.38773,-2e-5 -88.99563,-11.56784 -124.1672,-28.42098 h 73.29181 c 15.52467,6.95483 32.73108,10.8263 50.84414,10.8263 18.11472,0 35.3242,-3.87139 50.85,-10.8263 z"
       id="path102"
       style="mix-blend-mode:normal;fill:#003380;fill-rule:nonzero;stroke:none;stroke-width:1.2246;stroke-linecap:butt;stroke-linejoin:miter;stroke-miterlimit:10;stroke-dasharray:none;stroke-dashoffset:0" /><path
       d="m 459.87819,213.12053 c -9.85232,9.05347 -21.30881,17.50506 -33.86093,25.41172 -6.90753,4.34826 -14.14792,8.53188 -21.71139,12.48421 h -73.38359 c 16.70845,-9.27582 31.05534,-22.28103 41.91897,-37.89593 z"
       id="path104"
       style="mix-blend-mode:normal;fill:#003380;fill-rule:nonzero;stroke:none;stroke-width:1.2246;stroke-linecap:butt;stroke-linejoin:miter;stroke-miterlimit:10;stroke-dasharray:none;stroke-dashoffset:0" /><path
       d="m 489.7902,172.89491 c -4.74968,11.2441 -11.99901,21.7483 -21.17236,31.57863 h -90.27111 c 5.66232,-9.76377 10.03662,-20.36663 12.88779,-31.57863 z"
       id="path106"
       style="mix-blend-mode:normal;fill:#003380;fill-rule:nonzero;stroke:none;stroke-width:1.2246;stroke-linecap:butt;stroke-linejoin:miter;stroke-miterlimit:10;stroke-dasharray:none;stroke-dashoffset:0" /><path
       d="m 495.53197,132.74741 c 0.38098,3.07748 0.5937,6.20167 0.5937,9.38513 0,7.1238 -0.97662,13.98982 -2.80448,20.61369 H 393.3613 c 1.1184,-6.70763 1.70887,-13.59435 1.70887,-20.61956 0,-3.15561 -0.12075,-6.28265 -0.35154,-9.37928 z"
       id="path108"
       style="mix-blend-mode:normal;fill:#003380;fill-rule:nonzero;stroke:none;stroke-width:1.2246;stroke-linecap:butt;stroke-linejoin:miter;stroke-miterlimit:10;stroke-dasharray:none;stroke-dashoffset:0" /><path
       d="m 478.59955,91.980852 c 6.53155,8.932488 11.44879,18.393668 14.39159,28.420968 h -99.81341 c -1.74815,-9.9298 -4.67887,-19.45176 -8.63222,-28.420968 z"
       id="path110"
       style="mix-blend-mode:normal;fill:#003380;fill-rule:nonzero;stroke:none;stroke-width:1.2246;stroke-linecap:butt;stroke-linejoin:miter;stroke-miterlimit:10;stroke-dasharray:none;stroke-dashoffset:0" /><path
       d="m 444.44567,58.617354 c 8.33842,6.258945 15.94036,12.83207 22.6039,19.736898 h -89.54654 c -4.22191,-7.061361 -9.11912,-13.672287 -14.61031,-19.736898 z"
       id="path112"
       style="mix-blend-mode:normal;fill:#003380;fill-rule:nonzero;stroke:none;stroke-width:1.2246;stroke-linecap:butt;stroke-linejoin:miter;stroke-miterlimit:10;stroke-dasharray:none;stroke-dashoffset:0" /><path
       d="m 397.21066,29.842934 c 8.05144,3.964333 15.75524,8.203378 23.10973,12.63263 h -75.13152 c -6.47953,-4.857571 -13.44982,-9.096273 -20.82083,-12.63263 z"
       id="path114"
       style="mix-blend-mode:normal;fill:#003380;fill-rule:nonzero;stroke:none;stroke-width:1.2246;stroke-linecap:butt;stroke-linejoin:miter;stroke-miterlimit:10;stroke-dasharray:none;stroke-dashoffset:0" /><path
       d="M 348.94446,11.121484 H 191.91624 c 24.07634,-6.9188243 50.35575,-11.05086923 78.69378,-11.05086923 28.22605,0 54.37309,4.14002893 78.33444,11.05086923 z"
       id="path116"
       style="mix-blend-mode:normal;fill:#003380;fill-rule:nonzero;stroke:none;stroke-width:1.2246;stroke-linecap:butt;stroke-linejoin:miter;stroke-miterlimit:10;stroke-dasharray:none;stroke-dashoffset:0" /></g></g>
</svg>
