<?xml version="1.0" encoding="UTF-8" standalone="no"?>
<!DOCTYPE svg PUBLIC "-//W3C//DTD SVG 1.1//EN" "http://www.w3.org/Graphics/SVG/1.1/DTD/svg11.dtd">
<svg xmlns="http://www.w3.org/2000/svg" version="1.1" viewBox="0.00 0.00 1616.00 1125.00">
<g stroke-width="2.00" fill="none" stroke-linecap="butt">
<path stroke="#1b4f94" vector-effect="non-scaling-stroke" d="
  M 944.86 0.22
  Q 955.77 7.17 949.42 15.29
  Q 948.02 17.08 945.58 18.01
  Q 917.29 28.80 889.75 42.63
  Q 882.71 46.16 875.79 49.85
  Q 843.05 67.30 812.75 89.04
  Q 784.38 109.39 759.60 132.41
  Q 702.49 185.45 661.36 252.12
  Q 631.71 300.16 612.32 349.07
  Q 610.82 352.87 609.01 355.85
  Q 608.50 356.69 608.54 355.86
  Q 608.55 355.48 608.88 354.83"
/>
<path stroke="#2c5a9c" vector-effect="non-scaling-stroke" d="
  M 608.88 354.83
  Q 628.33 305.89 655.14 260.69
  C 689.71 202.41 734.48 149.76 787.22 107.18
  Q 858.18 49.88 946.16 16.13
  C 950.35 14.53 952.21 10.61 949.23 6.74
  C 947.02 3.88 945.14 4.58 942.16 5.20
  C 840.01 26.49 741.20 67.90 656.82 129.08
  Q 553.53 203.98 486.38 313.47
  Q 486.12 313.88 486.27 314.23"
/>
<path stroke="#1b4f94" vector-effect="non-scaling-stroke" d="
  M 486.27 314.23
  Q 486.00 314.18 485.79 314.53
  Q 439.25 391.91 413.18 478.41
  Q 399.58 523.52 391.26 567.11
  Q 389.30 577.38 388.14 587.01
  Q 385.39 609.82 386.38 633.61
  Q 387.19 653.19 391.05 669.73
  C 394.80 685.79 401.31 701.85 411.74 714.18
  Q 426.31 731.40 448.49 737.52
  Q 463.71 741.72 479.50 740.99
  Q 490.61 740.47 500.82 736.15
  Q 501.58 735.83 501.02 736.44
  Q 500.70 736.80 500.25 736.99
  Q 494.82 739.34 490.45 740.31
  Q 487.49 740.96 484.51 741.57
  Q 481.47 742.19 478.46 742.32
  Q 467.69 742.78 458.24 741.41
  Q 454.80 740.91 451.77 740.03
  Q 449.74 739.44 447.61 738.93
  Q 445.42 738.39 443.28 737.78
  A 0.77 0.75 83.6 0 1 442.84 737.42
  Q 442.61 737.00 442.18 737.11
  Q 441.72 737.22 441.28 737.07
  Q 430.05 733.33 421.66 726.45
  Q 421.27 726.13 420.76 726.13
  Q 420.45 726.13 420.18 725.92
  Q 411.02 718.75 404.47 709.54
  Q 397.05 699.10 392.70 687.52
  Q 392.03 685.75 391.37 683.98
  Q 390.71 682.25 390.26 680.41
  Q 389.68 678.06 388.41 675.94"
/>
<path stroke="#2c70bf" vector-effect="non-scaling-stroke" d="
  M 486.27 314.23
  Q 487.70 315.02 489.24 315.57
  Q 548.31 336.69 608.88 354.83"
/>
<path stroke="#af202a" vector-effect="non-scaling-stroke" d="
  M 1060.99 41.59
  Q 1059.97 42.58 1058.24 42.99
  Q 1056.49 43.41 1054.84 44.03
  Q 1014.75 59.20 977.79 82.61
  Q 881.20 143.78 827.23 243.64
  Q 806.21 282.52 792.05 328.06
  Q 790.90 331.77 789.93 335.50
  Q 789.51 337.12 788.93 338.70
  Q 788.40 340.13 788.14 342.00
  Q 787.79 344.45 786.18 346.67"
/>
<path stroke="#8a2024" vector-effect="non-scaling-stroke" d="
  M 1062.97 42.15
  Q 1062.90 42.25 1062.81 42.39
  Q 1062.70 42.55 1062.82 42.70
  Q 1064.77 45.15 1065.36 48.24
  Q 1065.50 48.95 1064.39 49.08"
/>
<path stroke="#af202a" vector-effect="non-scaling-stroke" d="
  M 1064.39 49.08
  Q 1063.91 47.31 1062.21 46.45
  Q 1061.76 46.22 1061.26 46.33
  Q 1058.16 46.97 1056.21 47.74
  Q 1003.57 68.52 960.85 98.84
  Q 857.88 171.92 809.90 290.12
  Q 789.38 340.66 779.90 397.38
  Q 771.45 447.90 771.03 499.62
  Q 770.63 548.34 775.48 593.96
  Q 782.03 655.49 795.94 718.06
  Q 798.30 728.69 800.97 736.95
  Q 804.45 747.74 812.49 761.95
  Q 819.63 774.55 829.74 785.05
  Q 849.66 805.73 878.53 809.60"
/>
<path stroke="#8a2024" vector-effect="non-scaling-stroke" d="
  M 878.53 809.60
  Q 875.83 810.68 873.50 810.12
  Q 869.98 809.27 866.05 808.38
  Q 860.31 807.08 855.21 805.10
  Q 849.53 802.90 844.17 799.63
  Q 830.78 791.47 819.86 778.05
  Q 814.37 771.29 810.55 764.96
  Q 800.62 748.50 795.11 729.14
  Q 794.63 727.48 794.34 725.76
  Q 794.05 724.02 793.46 722.34
  Q 792.61 719.89 792.29 717.31
  C 791.89 714.11 790.70 711.12 790.29 707.90
  Q 789.93 705.00 789.07 702.10
  Q 788.48 700.11 788.18 697.69
  Q 787.89 695.41 787.28 693.21
  Q 786.64 690.94 786.31 688.69
  Q 785.76 684.97 784.75 681.41
  Q 784.36 680.05 784.35 678.54
  C 784.33 676.58 783.66 674.87 783.62 672.95
  Q 783.60 671.48 782.76 670.10
  A 2.11 2.09 29.8 0 1 782.46 669.02
  Q 782.40 664.56 781.10 659.99
  Q 780.43 657.61 780.15 654.96
  Q 779.89 652.44 779.46 649.77
  Q 778.14 641.63 776.89 633.40
  Q 776.67 631.97 776.64 630.69
  Q 776.61 629.21 776.29 628.35
  Q 775.85 627.13 775.23 626.18"
/>
<path stroke="#af202a" vector-effect="non-scaling-stroke" d="
  M 886.30 428.13
  L 887.10 440.22"
/>
<path stroke="#af202a" vector-effect="non-scaling-stroke" d="
  M 887.35 440.07
  Q 887.48 451.68 888.25 454.75
  Q 888.88 457.28 888.72 460.75
  Q 888.65 462.04 889.50 463.10"
/>
<path stroke="#af202a" vector-effect="non-scaling-stroke" d="
  M 889.55 463.36
  Q 889.39 467.98 890.05 471.26
  Q 890.54 473.73 890.74 475.66
  Q 891.09 479.01 891.10 479.09
  Q 903.87 570.98 942.17 655.34
  Q 943.82 658.98 945.86 663.11
  Q 949.36 670.18 952.61 679.19
  Q 958.86 696.49 962.11 712.73
  Q 962.14 712.91 962.23 712.98
  Q 962.35 713.08 962.52 713.06"
/>
<path stroke="#af202a" vector-effect="non-scaling-stroke" d="
  M 962.79 713.20
  Q 962.49 713.13 962.36 713.52
  Q 962.29 713.72 962.35 714.02
  Q 963.70 720.38 964.03 726.88
  Q 964.05 727.25 964.41 727.55"
/>
<path stroke="#af202a" vector-effect="non-scaling-stroke" d="
  M 964.52 728.21
  L 964.92 736.35"
/>
<path stroke="#cb2f2c" vector-effect="non-scaling-stroke" d="
  M 878.53 809.60
  Q 891.72 810.06 896.00 809.62
  Q 911.33 808.06 923.99 803.66
  Q 956.69 792.30 963.32 758.03
  C 963.67 756.24 963.61 754.61 963.94 752.91
  Q 964.31 751.01 964.44 749.07
  Q 964.87 742.66 964.92 736.35"
/>
<path stroke="#8a2024" vector-effect="non-scaling-stroke" d="
  M 964.92 736.35
  L 965.01 728.72
  Q 965.01 728.48 964.83 728.33
  Q 964.67 728.19 964.52 728.21"
/>
<path stroke="#cb2f2c" vector-effect="non-scaling-stroke" d="
  M 964.52 728.21
  Q 964.41 728.10 964.41 727.55"
/>
<path stroke="#8a2024" vector-effect="non-scaling-stroke" d="
  M 964.41 727.55
  Q 964.37 720.28 962.79 713.20"
/>
<path stroke="#cb2f2c" vector-effect="non-scaling-stroke" d="
  M 962.79 713.20
  Q 962.89 712.83 962.52 713.06"
/>
<path stroke="#8a2024" vector-effect="non-scaling-stroke" d="
  M 962.52 713.06
  Q 962.45 711.03 961.82 708.15
  Q 957.96 690.56 951.66 673.98
  Q 948.89 666.67 943.47 655.65
  Q 934.64 637.71 925.38 612.52
  Q 904.18 554.79 894.21 495.73
  Q 892.41 485.03 891.11 474.20
  Q 890.96 473.03 890.58 471.88
  Q 890.20 470.71 890.23 469.51
  Q 890.31 465.95 889.55 463.36"
/>
<path stroke="#cb2f2c" vector-effect="non-scaling-stroke" d="
  M 889.55 463.36
  Q 889.47 463.27 889.50 463.10"
/>
<path stroke="#8a2024" vector-effect="non-scaling-stroke" d="
  M 889.50 463.10
  L 889.09 455.73
  Q 889.06 455.24 888.80 454.82
  C 888.38 454.16 888.23 453.65 888.27 452.86
  Q 888.59 446.47 887.35 440.07"
/>
<path stroke="#cb2f2c" vector-effect="non-scaling-stroke" d="
  M 887.35 440.07
  Q 887.22 440.15 887.10 440.22"
/>
<path stroke="#8a2024" vector-effect="non-scaling-stroke" d="
  M 887.10 440.22
  Q 887.80 433.60 886.30 428.13"
/>
<path stroke="#cb2f2c" vector-effect="non-scaling-stroke" d="
  M 886.30 428.13
  Q 885.31 410.21 885.88 389.38
  Q 886.30 374.28 887.63 361.35
  C 887.82 359.48 887.60 357.71 888.01 355.89
  C 888.52 353.61 888.00 351.40 888.86 349.22
  Q 889.32 348.06 889.45 346.55
  Q 890.04 339.99 891.02 333.58
  Q 909.34 213.17 988.60 122.13
  Q 1021.86 83.93 1063.60 52.78
  C 1064.86 51.84 1064.86 50.49 1064.39 49.08"
/>
<path stroke="#e89633" vector-effect="non-scaling-stroke" d="
  M 1055.02 199.68
  Q 1067.49 212.28 1072.60 220.40
  Q 1145.37 335.88 1218.12 451.38
  C 1219.13 452.98 1219.42 454.77 1220.36 456.26
  Q 1289.41 565.91 1358.46 675.57
  Q 1363.79 684.03 1363.98 684.43
  Q 1366.48 689.63 1365.81 694.97"
/>
<path stroke="#e8971a" vector-effect="non-scaling-stroke" d="
  M 1365.81 694.97
  Q 1364.73 688.72 1362.83 685.70
  Q 1289.56 569.36 1216.31 453.00"
/>
<path stroke="#e89633" vector-effect="non-scaling-stroke" d="
  M 1216.31 453.00
  Q 1145.77 340.89 1075.16 228.82
  Q 1068.82 218.77 1064.76 214.10
  C 1051.93 199.34 1035.25 190.01 1015.34 193.03
  C 1002.78 194.93 990.33 201.47 980.27 209.37
  C 950.38 232.82 933.84 267.05 925.43 304.25
  Q 919.67 329.72 918.04 358.25
  Q 916.55 384.49 918.07 410.25
  Q 918.46 416.79 918.89 423.69"
/>
<path stroke="#e8971a" vector-effect="non-scaling-stroke" d="
  M 918.89 423.69
  Q 919.32 426.97 919.65 430.73
  Q 924.95 490.79 938.82 547.06
  Q 941.35 557.35 943.89 565.93
  C 960.83 623.22 990.11 680.25 1034.22 718.91
  Q 1080.34 759.34 1142.21 769.06
  Q 1161.63 772.11 1179.05 772.26
  Q 1203.12 772.48 1227.73 768.68
  Q 1252.27 764.89 1276.48 757.66"
/>
<path stroke="#e89633" vector-effect="non-scaling-stroke" d="
  M 1276.48 757.66
  Q 1275.88 758.87 1274.10 759.22
  Q 1271.49 759.72 1271.43 759.74
  Q 1265.48 761.48 1259.51 763.15
  Q 1257.47 763.72 1255.29 764.05
  C 1252.26 764.52 1249.39 765.64 1246.37 766.09
  C 1242.96 766.59 1239.78 767.59 1236.35 768.13
  Q 1221.41 770.48 1211.36 771.65
  Q 1198.26 773.16 1190.91 773.16
  C 1180.35 773.14 1168.91 773.45 1158.32 772.48
  Q 1152.13 771.91 1144.50 770.89
  Q 1104.52 765.51 1069.88 746.61
  Q 1030.47 725.11 1000.22 686.60
  Q 988.17 671.25 977.42 653.05
  Q 971.19 642.51 966.94 633.82
  Q 953.53 606.39 942.48 574.41"
/>
<path stroke="#e89633" vector-effect="non-scaling-stroke" d="
  M 940.59 249.99
  Q 945.10 242.90 949.72 236.01
  Q 953.19 230.86 956.65 226.72
  Q 961.93 220.42 964.42 217.85
  Q 968.36 213.76 975.14 208.14
  Q 987.95 197.49 1002.75 191.93
  Q 1003.42 191.68 1004.52 191.50
  Q 1006.74 191.13 1005.92 190.13"
/>
<path stroke="#fbbe31" vector-effect="non-scaling-stroke" d="
  M 1276.48 757.66
  Q 1303.91 749.56 1329.86 736.58
  C 1342.23 730.40 1355.97 721.76 1362.69 709.15
  Q 1366.09 702.75 1365.81 694.97"
/>
<path stroke="#fbbe31" vector-effect="non-scaling-stroke" d="
  M 1216.31 453.00
  L 1215.88 453.35
  Q 1215.50 453.67 1215.00 453.59
  Q 1212.74 453.21 1209.50 453.09
  Q 1170.62 451.67 1129.15 448.48
  C 1125.92 448.23 1122.75 448.21 1119.52 447.74
  Q 1118.01 447.52 1116.26 447.39
  Q 1017.06 439.62 918.89 423.69"
/>
<path stroke="#1b4f94" vector-effect="non-scaling-stroke" d="
  M 565.43 511.40
  Q 566.37 508.51 566.63 505.34
  Q 566.67 504.95 566.29 504.89
  Q 566.23 504.88 566.19 504.90
  Q 565.63 505.18 565.70 505.82
  Q 565.95 507.79 565.28 509.49
  Q 564.94 510.36 565.03 511.35
  Q 565.11 512.36 565.43 511.40"
/>
<path stroke="#3c2d78" vector-effect="non-scaling-stroke" d="
  M 637.99 363.14
  Q 622.67 404.67 612.60 448.52
  Q 598.74 508.95 593.74 570.75
  Q 590.80 607.24 590.52 629.04
  Q 590.32 644.11 590.12 658.47
  Q 590.02 665.74 589.73 672.70
  Q 588.97 691.52 592.18 714.15
  C 595.46 737.31 603.10 761.72 618.11 779.30
  Q 638.10 802.72 669.41 804.80
  C 677.58 805.35 686.27 805.32 694.36 803.66
  C 695.17 803.50 695.85 803.72 696.71 803.49
  Q 700.28 802.51 703.87 801.41
  C 725.62 794.76 739.74 777.18 746.27 755.72
  Q 748.81 747.35 750.43 737.79
  Q 750.65 736.50 750.57 735.30
  Q 750.48 734.02 751.17 732.89
  Q 751.52 732.33 751.38 731.69
  C 750.84 729.02 751.94 726.69 751.91 724.01
  C 751.86 718.02 752.63 712.17 752.30 706.04
  Q 751.85 697.78 751.40 689.35
  Q 751.32 687.97 751.00 686.63
  Q 750.66 685.27 750.61 683.85
  Q 750.54 681.63 750.18 679.59
  Q 748.66 670.85 747.00 662.26
  Q 744.05 647.08 740.42 616.31
  C 740.30 615.25 740.57 614.12 740.21 613.14
  C 739.37 610.91 739.88 608.73 739.56 606.43
  Q 738.56 599.30 738.41 591.80
  C 738.38 590.26 737.65 589.07 737.72 587.53
  C 737.92 583.10 737.13 578.00 736.98 574.83
  Q 735.03 535.28 736.43 497.74
  C 736.52 495.38 737.04 493.10 736.95 490.77
  Q 736.85 488.25 737.24 485.56
  Q 737.90 480.96 737.65 476.63
  Q 737.57 475.23 738.07 473.96
  C 739.06 471.46 737.79 468.86 738.52 466.24
  Q 739.21 463.77 738.97 461.06
  Q 738.92 460.53 739.10 460.03
  Q 739.77 458.13 739.73 456.13
  Q 739.67 452.85 740.23 449.00
  Q 740.74 445.48 741.13 442.00
  Q 742.39 430.63 744.25 418.84
  C 744.43 417.64 744.26 416.57 744.64 415.44
  Q 745.03 414.27 745.23 413.00
  Q 746.88 402.09 748.92 392.11"
/>
<path stroke="#4f3a83" vector-effect="non-scaling-stroke" d="
  M 748.92 392.11
  Q 759.24 338.90 778.52 289.27
  Q 799.29 235.82 830.44 189.83
  Q 883.67 111.22 964.03 58.65
  Q 997.92 36.48 1034.60 19.76
  C 1038.55 17.96 1037.32 10.62 1032.72 11.69
  Q 983.64 23.17 934.41 44.75
  C 846.70 83.19 770.39 142.87 714.32 219.58
  Q 666.52 284.97 637.99 363.14"
/>
<path stroke="#573b9d" vector-effect="non-scaling-stroke" d="
  M 748.92 392.11
  Q 693.00 379.01 637.99 363.14"
/>
<path stroke="#2c8b3f" vector-effect="non-scaling-stroke" d="
  M 295.33 235.56
  Q 306.72 249.24 317.35 262.63
  Q 337.13 287.56 354.65 314.12
  Q 385.59 361.06 406.84 413.64
  Q 407.16 414.41 407.40 413.61
  Q 410.04 405.09 413.20 396.61
  Q 420.35 377.48 429.13 359.05
  Q 442.76 330.40 459.28 303.45"
/>
<path stroke="#2d9546" vector-effect="non-scaling-stroke" d="
  M 459.28 303.45
  Q 497.55 241.66 547.68 189.18
  Q 566.48 169.49 577.81 159.16
  Q 584.95 152.65 586.79 150.26
  Q 590.26 145.74 591.95 138.84
  C 597.66 115.59 580.12 101.59 561.09 93.83
  Q 549.06 88.92 528.79 84.92
  Q 507.28 80.68 485.50 78.03
  Q 452.91 74.05 419.99 71.88
  Q 380.21 69.26 367.58 69.06
  C 360.22 68.94 352.52 68.33 345.07 68.14
  Q 279.36 66.47 221.81 67.09
  Q 187.22 67.46 124.50 68.98
  Q 122.35 69.03 119.89 69.42
  Q 118.62 69.62 117.96 70.43
  C 116.70 72.01 118.18 73.67 119.46 74.60
  Q 207.05 138.07 281.13 219.85
  Q 288.48 227.96 295.33 235.56"
/>
<path stroke="#41b153" vector-effect="non-scaling-stroke" d="
  M 459.28 303.45
  Q 376.33 272.49 295.33 235.56"
/>
</g>
<path fill="#1b3971" d="
  M 944.86 0.22
  Q 955.77 7.17 949.42 15.29
  Q 948.02 17.08 945.58 18.01
  Q 917.29 28.80 889.75 42.63
  Q 882.71 46.16 875.79 49.85
  Q 843.05 67.30 812.75 89.04
  Q 784.38 109.39 759.60 132.41
  Q 702.49 185.45 661.36 252.12
  Q 631.71 300.16 612.32 349.07
  Q 610.82 352.87 609.01 355.85
  Q 608.50 356.69 608.54 355.86
  Q 608.55 355.48 608.88 354.83
  Q 628.33 305.89 655.14 260.69
  C 689.71 202.41 734.48 149.76 787.22 107.18
  Q 858.18 49.88 946.16 16.13
  C 950.35 14.53 952.21 10.61 949.23 6.74
  C 947.02 3.88 945.14 4.58 942.16 5.20
  C 840.01 26.49 741.20 67.90 656.82 129.08
  Q 553.53 203.98 486.38 313.47
  Q 486.12 313.88 486.27 314.23
  Q 486.00 314.18 485.79 314.53
  Q 439.25 391.91 413.18 478.41
  Q 399.58 523.52 391.26 567.11
  Q 389.30 577.38 388.14 587.01
  Q 385.39 609.82 386.38 633.61
  Q 387.19 653.19 391.05 669.73
  C 394.80 685.79 401.31 701.85 411.74 714.18
  Q 426.31 731.40 448.49 737.52
  Q 463.71 741.72 479.50 740.99
  Q 490.61 740.47 500.82 736.15
  Q 501.58 735.83 501.02 736.44
  Q 500.70 736.80 500.25 736.99
  Q 494.82 739.34 490.45 740.31
  Q 487.49 740.96 484.51 741.57
  Q 481.47 742.19 478.46 742.32
  Q 467.69 742.78 458.24 741.41
  Q 454.80 740.91 451.77 740.03
  Q 449.74 739.44 447.61 738.93
  Q 445.42 738.39 443.28 737.78
  A 0.77 0.75 83.6 0 1 442.84 737.42
  Q 442.61 737.00 442.18 737.11
  Q 441.72 737.22 441.28 737.07
  Q 430.05 733.33 421.66 726.45
  Q 421.27 726.13 420.76 726.13
  Q 420.45 726.13 420.18 725.92
  Q 411.02 718.75 404.47 709.54
  Q 397.05 699.10 392.70 687.52
  Q 392.03 685.75 391.37 683.98
  Q 390.71 682.25 390.26 680.41
  Q 389.68 678.06 388.41 675.94
  Q 385.11 663.98 383.88 654.03
  Q 379.07 614.84 385.73 574.92
  Q 392.99 531.39 408.72 478.88
  Q 430.43 406.40 465.34 341.84
  Q 520.26 240.28 605.52 164.96
  C 696.40 84.65 809.56 30.63 928.13 4.08
  C 929.25 3.83 930.14 3.36 931.36 3.42
  Q 931.88 3.44 932.29 3.12
  C 933.08 2.52 934.19 2.80 935.21 2.54
  Q 940.19 1.29 944.86 0.22
  Z"
/>
<path fill="#1b65b6" d="
  M 944.86 0.22
  Q 950.61 0.73 953.28 5.28
  C 955.66 9.35 955.13 13.90 951.99 17.33
  Q 950.64 18.81 948.86 19.49
  Q 880.16 45.68 822.14 86.03
  C 741.12 142.38 677.73 219.11 634.28 307.92
  Q 601.28 375.37 582.52 449.21
  Q 563.65 523.51 558.93 597.25
  Q 558.37 605.99 558.06 617.24
  C 557.80 626.64 558.01 636.04 556.79 645.37
  Q 554.68 661.45 550.01 677.16
  C 543.11 700.31 530.52 724.20 508.81 736.68
  C 490.35 747.29 469.16 747.39 448.43 741.80
  C 427.06 736.04 410.34 723.14 399.45 703.52
  Q 392.06 690.21 388.41 675.94
  Q 389.68 678.06 390.26 680.41
  Q 390.71 682.25 391.37 683.98
  Q 392.03 685.75 392.70 687.52
  Q 397.05 699.10 404.47 709.54
  Q 411.02 718.75 420.18 725.92
  Q 420.45 726.13 420.76 726.13
  Q 421.27 726.13 421.66 726.45
  Q 430.05 733.33 441.28 737.07
  Q 441.72 737.22 442.18 737.11
  Q 442.61 737.00 442.84 737.42
  A 0.77 0.75 83.6 0 0 443.28 737.78
  Q 445.42 738.39 447.61 738.93
  Q 449.74 739.44 451.77 740.03
  Q 454.80 740.91 458.24 741.41
  Q 467.69 742.78 478.46 742.32
  Q 481.47 742.19 484.51 741.57
  Q 487.49 740.96 490.45 740.31
  Q 494.82 739.34 500.25 736.99
  Q 500.70 736.80 501.02 736.44
  Q 501.58 735.83 500.82 736.15
  Q 490.61 740.47 479.50 740.99
  Q 463.71 741.72 448.49 737.52
  Q 426.31 731.40 411.74 714.18
  C 401.31 701.85 394.80 685.79 391.05 669.73
  Q 387.19 653.19 386.38 633.61
  Q 385.39 609.82 388.14 587.01
  Q 389.30 577.38 391.26 567.11
  Q 399.58 523.52 413.18 478.41
  Q 439.25 391.91 485.79 314.53
  Q 486.00 314.18 486.27 314.23
  Q 487.70 315.02 489.24 315.57
  Q 548.31 336.69 608.88 354.83
  Q 608.55 355.48 608.54 355.86
  Q 608.50 356.69 609.01 355.85
  Q 610.82 352.87 612.32 349.07
  Q 631.71 300.16 661.36 252.12
  Q 702.49 185.45 759.60 132.41
  Q 784.38 109.39 812.75 89.04
  Q 843.05 67.30 875.79 49.85
  Q 882.71 46.16 889.75 42.63
  Q 917.29 28.80 945.58 18.01
  Q 948.02 17.08 949.42 15.29
  Q 955.77 7.17 944.86 0.22
  Z
  M 565.43 511.40
  Q 566.37 508.51 566.63 505.34
  Q 566.67 504.95 566.29 504.89
  Q 566.23 504.88 566.19 504.90
  Q 565.63 505.18 565.70 505.82
  Q 565.95 507.79 565.28 509.49
  Q 564.94 510.36 565.03 511.35
  Q 565.11 512.36 565.43 511.40
  Z"
/>
<path fill="#3d7bc7" d="
  M 608.88 354.83
  Q 548.31 336.69 489.24 315.57
  Q 487.70 315.02 486.27 314.23
  Q 486.12 313.88 486.38 313.47
  Q 553.53 203.98 656.82 129.08
  C 741.20 67.90 840.01 26.49 942.16 5.20
  C 945.14 4.58 947.02 3.88 949.23 6.74
  C 952.21 10.61 950.35 14.53 946.16 16.13
  Q 858.18 49.88 787.22 107.18
  C 734.48 149.76 689.71 202.41 655.14 260.69
  Q 628.33 305.89 608.88 354.83
  Z"
/>
<path fill="#342c5e" d="
  M 585.87 647.25
  Q 586.29 618.83 588.01 590.25
  Q 588.32 585.00 588.81 579.67
  Q 589.01 577.49 589.03 575.30
  C 589.04 573.36 589.63 571.52 589.73 569.58
  Q 589.89 566.28 590.27 562.12
  Q 596.39 493.96 612.77 429.88
  C 625.67 379.44 643.99 330.44 668.21 285.22
  Q 746.36 139.31 891.89 60.71
  Q 900.72 55.94 909.68 51.55
  Q 969.12 22.42 1033.47 7.18
  Q 1034.52 6.93 1035.49 7.40
  C 1040.89 10.01 1043.36 16.28 1039.24 21.30
  Q 1038.05 22.76 1035.39 24.00
  Q 999.65 40.61 970.56 59.31
  Q 851.40 135.91 793.08 265.19
  Q 774.78 305.76 762.95 350.11
  Q 750.36 397.30 744.88 446.60
  Q 735.40 531.81 744.89 619.34
  Q 747.16 640.29 749.71 653.95
  Q 751.92 665.87 754.08 679.00
  Q 756.24 692.15 756.50 709.30
  C 757.08 748.28 746.45 793.35 703.54 805.93
  Q 695.76 808.21 687.91 808.88
  Q 680.14 809.54 670.44 809.12
  Q 668.27 809.03 666.08 808.81
  Q 663.93 808.59 661.76 808.23
  Q 634.39 803.65 617.69 785.31
  C 606.16 772.66 598.70 757.54 593.89 741.21
  Q 589.10 724.97 587.14 708.13
  Q 584.92 688.94 585.64 669.57
  C 585.93 661.83 585.76 654.79 585.87 647.25
  Z
  M 637.99 363.14
  Q 622.67 404.67 612.60 448.52
  Q 598.74 508.95 593.74 570.75
  Q 590.80 607.24 590.52 629.04
  Q 590.32 644.11 590.12 658.47
  Q 590.02 665.74 589.73 672.70
  Q 588.97 691.52 592.18 714.15
  C 595.46 737.31 603.10 761.72 618.11 779.30
  Q 638.10 802.72 669.41 804.80
  C 677.58 805.35 686.27 805.32 694.36 803.66
  C 695.17 803.50 695.85 803.72 696.71 803.49
  Q 700.28 802.51 703.87 801.41
  C 725.62 794.76 739.74 777.18 746.27 755.72
  Q 748.81 747.35 750.43 737.79
  Q 750.65 736.50 750.57 735.30
  Q 750.48 734.02 751.17 732.89
  Q 751.52 732.33 751.38 731.69
  C 750.84 729.02 751.94 726.69 751.91 724.01
  C 751.86 718.02 752.63 712.17 752.30 706.04
  Q 751.85 697.78 751.40 689.35
  Q 751.32 687.97 751.00 686.63
  Q 750.66 685.27 750.61 683.85
  Q 750.54 681.63 750.18 679.59
  Q 748.66 670.85 747.00 662.26
  Q 744.05 647.08 740.42 616.31
  C 740.30 615.25 740.57 614.12 740.21 613.14
  C 739.37 610.91 739.88 608.73 739.56 606.43
  Q 738.56 599.30 738.41 591.80
  C 738.38 590.26 737.65 589.07 737.72 587.53
  C 737.92 583.10 737.13 578.00 736.98 574.83
  Q 735.03 535.28 736.43 497.74
  C 736.52 495.38 737.04 493.10 736.95 490.77
  Q 736.85 488.25 737.24 485.56
  Q 737.90 480.96 737.65 476.63
  Q 737.57 475.23 738.07 473.96
  C 739.06 471.46 737.79 468.86 738.52 466.24
  Q 739.21 463.77 738.97 461.06
  Q 738.92 460.53 739.10 460.03
  Q 739.77 458.13 739.73 456.13
  Q 739.67 452.85 740.23 449.00
  Q 740.74 445.48 741.13 442.00
  Q 742.39 430.63 744.25 418.84
  C 744.43 417.64 744.26 416.57 744.64 415.44
  Q 745.03 414.27 745.23 413.00
  Q 746.88 402.09 748.92 392.11
  Q 759.24 338.90 778.52 289.27
  Q 799.29 235.82 830.44 189.83
  Q 883.67 111.22 964.03 58.65
  Q 997.92 36.48 1034.60 19.76
  C 1038.55 17.96 1037.32 10.62 1032.72 11.69
  Q 983.64 23.17 934.41 44.75
  C 846.70 83.19 770.39 142.87 714.32 219.58
  Q 666.52 284.97 637.99 363.14
  Z"
/>
<path fill="#6947a7" d="
  M 748.92 392.11
  Q 693.00 379.01 637.99 363.14
  Q 666.52 284.97 714.32 219.58
  C 770.39 142.87 846.70 83.19 934.41 44.75
  Q 983.64 23.17 1032.72 11.69
  C 1037.32 10.62 1038.55 17.96 1034.60 19.76
  Q 997.92 36.48 964.03 58.65
  Q 883.67 111.22 830.44 189.83
  Q 799.29 235.82 778.52 289.27
  Q 759.24 338.90 748.92 392.11
  Z"
/>
<path fill="#ef2e32" d="
  M 1060.99 41.59
  Q 1059.97 42.58 1058.24 42.99
  Q 1056.49 43.41 1054.84 44.03
  Q 1014.75 59.20 977.79 82.61
  Q 881.20 143.78 827.23 243.64
  Q 806.21 282.52 792.05 328.06
  Q 790.90 331.77 789.93 335.50
  Q 789.51 337.12 788.93 338.70
  Q 788.40 340.13 788.14 342.00
  Q 787.79 344.45 786.18 346.67
  C 809.51 256.86 857.94 175.83 928.74 116.75
  Q 982.96 71.50 1050.95 44.14
  Q 1057.02 41.70 1060.99 41.59
  Z"
/>
<path fill="#6e1122" d="
  M 1060.99 41.59
  L 1062.97 42.15
  Q 1062.90 42.25 1062.81 42.39
  Q 1062.70 42.55 1062.82 42.70
  Q 1064.77 45.15 1065.36 48.24
  Q 1065.50 48.95 1064.39 49.08
  Q 1063.91 47.31 1062.21 46.45
  Q 1061.76 46.22 1061.26 46.33
  Q 1058.16 46.97 1056.21 47.74
  Q 1003.57 68.52 960.85 98.84
  Q 857.88 171.92 809.90 290.12
  Q 789.38 340.66 779.90 397.38
  Q 771.45 447.90 771.03 499.62
  Q 770.63 548.34 775.48 593.96
  Q 782.03 655.49 795.94 718.06
  Q 798.30 728.69 800.97 736.95
  Q 804.45 747.74 812.49 761.95
  Q 819.63 774.55 829.74 785.05
  Q 849.66 805.73 878.53 809.60
  Q 875.83 810.68 873.50 810.12
  Q 869.98 809.27 866.05 808.38
  Q 860.31 807.08 855.21 805.10
  Q 849.53 802.90 844.17 799.63
  Q 830.78 791.47 819.86 778.05
  Q 814.37 771.29 810.55 764.96
  Q 800.62 748.50 795.11 729.14
  Q 794.63 727.48 794.34 725.76
  Q 794.05 724.02 793.46 722.34
  Q 792.61 719.89 792.29 717.31
  C 791.89 714.11 790.70 711.12 790.29 707.90
  Q 789.93 705.00 789.07 702.10
  Q 788.48 700.11 788.18 697.69
  Q 787.89 695.41 787.28 693.21
  Q 786.64 690.94 786.31 688.69
  Q 785.76 684.97 784.75 681.41
  Q 784.36 680.05 784.35 678.54
  C 784.33 676.58 783.66 674.87 783.62 672.95
  Q 783.60 671.48 782.76 670.10
  A 2.11 2.09 29.8 0 1 782.46 669.02
  Q 782.40 664.56 781.10 659.99
  Q 780.43 657.61 780.15 654.96
  Q 779.89 652.44 779.46 649.77
  Q 778.14 641.63 776.89 633.40
  Q 776.67 631.97 776.64 630.69
  Q 776.61 629.21 776.29 628.35
  Q 775.85 627.13 775.23 626.18
  Q 772.22 604.94 770.41 583.47
  Q 770.24 581.51 769.92 579.55
  C 769.57 577.44 769.96 575.31 769.52 573.18
  C 768.88 570.10 769.32 567.06 768.77 563.91
  Q 768.24 560.87 768.48 557.50
  C 768.60 555.82 768.09 554.14 768.01 552.48
  Q 767.32 537.94 766.94 522.02
  Q 766.69 511.55 766.79 502.00
  Q 767.01 481.89 768.04 465.74
  Q 768.26 462.26 768.44 458.40
  Q 768.55 455.91 768.90 453.61
  C 769.24 451.41 769.15 449.35 769.36 447.17
  Q 769.83 442.19 770.54 435.52
  Q 772.70 415.30 775.60 396.47
  Q 775.78 395.32 775.95 394.26
  Q 779.93 370.12 786.18 346.67
  Q 787.79 344.45 788.14 342.00
  Q 788.40 340.13 788.93 338.70
  Q 789.51 337.12 789.93 335.50
  Q 790.90 331.77 792.05 328.06
  Q 806.21 282.52 827.23 243.64
  Q 881.20 143.78 977.79 82.61
  Q 1014.75 59.20 1054.84 44.03
  Q 1056.49 43.41 1058.24 42.99
  Q 1059.97 42.58 1060.99 41.59
  Z"
/>
<path fill="#a62f25" d="
  M 1062.97 42.15
  Q 1069.43 45.02 1068.81 52.00
  Q 1068.61 54.25 1066.70 55.67
  C 1032.91 80.89 1002.05 110.46 976.35 143.65
  Q 912.26 226.41 895.64 330.94
  Q 889.21 371.43 889.97 413.48
  C 891.13 476.92 903.83 541.23 925.02 602.07
  Q 935.34 631.70 947.27 656.59
  Q 952.47 667.44 955.75 676.07
  Q 960.97 689.76 964.68 705.85
  Q 969.36 726.16 968.82 744.86
  C 967.93 775.29 953.16 798.85 922.87 808.31
  C 906.23 813.51 889.17 815.72 872.63 812.79
  C 834.07 805.96 808.74 772.98 796.90 737.59
  Q 794.62 730.77 791.84 718.25
  Q 781.66 672.60 775.23 626.18
  Q 775.85 627.13 776.29 628.35
  Q 776.61 629.21 776.64 630.69
  Q 776.67 631.97 776.89 633.40
  Q 778.14 641.63 779.46 649.77
  Q 779.89 652.44 780.15 654.96
  Q 780.43 657.61 781.10 659.99
  Q 782.40 664.56 782.46 669.02
  A 2.11 2.09 29.8 0 0 782.76 670.10
  Q 783.60 671.48 783.62 672.95
  C 783.66 674.87 784.33 676.58 784.35 678.54
  Q 784.36 680.05 784.75 681.41
  Q 785.76 684.97 786.31 688.69
  Q 786.64 690.94 787.28 693.21
  Q 787.89 695.41 788.18 697.69
  Q 788.48 700.11 789.07 702.10
  Q 789.93 705.00 790.29 707.90
  C 790.70 711.12 791.89 714.11 792.29 717.31
  Q 792.61 719.89 793.46 722.34
  Q 794.05 724.02 794.34 725.76
  Q 794.63 727.48 795.11 729.14
  Q 800.62 748.50 810.55 764.96
  Q 814.37 771.29 819.86 778.05
  Q 830.78 791.47 844.17 799.63
  Q 849.53 802.90 855.21 805.10
  Q 860.31 807.08 866.05 808.38
  Q 869.98 809.27 873.50 810.12
  Q 875.83 810.68 878.53 809.60
  Q 891.72 810.06 896.00 809.62
  Q 911.33 808.06 923.99 803.66
  Q 956.69 792.30 963.32 758.03
  C 963.67 756.24 963.61 754.61 963.94 752.91
  Q 964.31 751.01 964.44 749.07
  Q 964.87 742.66 964.92 736.35
  L 965.01 728.72
  Q 965.01 728.48 964.83 728.33
  Q 964.67 728.19 964.52 728.21
  Q 964.41 728.10 964.41 727.55
  Q 964.37 720.28 962.79 713.20
  Q 962.89 712.83 962.52 713.06
  Q 962.45 711.03 961.82 708.15
  Q 957.96 690.56 951.66 673.98
  Q 948.89 666.67 943.47 655.65
  Q 934.64 637.71 925.38 612.52
  Q 904.18 554.79 894.21 495.73
  Q 892.41 485.03 891.11 474.20
  Q 890.96 473.03 890.58 471.88
  Q 890.20 470.71 890.23 469.51
  Q 890.31 465.95 889.55 463.36
  Q 889.47 463.27 889.50 463.10
  L 889.09 455.73
  Q 889.06 455.24 888.80 454.82
  C 888.38 454.16 888.23 453.65 888.27 452.86
  Q 888.59 446.47 887.35 440.07
  Q 887.22 440.15 887.10 440.22
  Q 887.80 433.60 886.30 428.13
  Q 885.31 410.21 885.88 389.38
  Q 886.30 374.28 887.63 361.35
  C 887.82 359.48 887.60 357.71 888.01 355.89
  C 888.52 353.61 888.00 351.40 888.86 349.22
  Q 889.32 348.06 889.45 346.55
  Q 890.04 339.99 891.02 333.58
  Q 909.34 213.17 988.60 122.13
  Q 1021.86 83.93 1063.60 52.78
  C 1064.86 51.84 1064.86 50.49 1064.39 49.08
  Q 1065.50 48.95 1065.36 48.24
  Q 1064.77 45.15 1062.82 42.70
  Q 1062.70 42.55 1062.81 42.39
  Q 1062.90 42.25 1062.97 42.15
  Z"
/>
<path fill="#ef2e32" d="
  M 1064.39 49.08
  C 1064.86 50.49 1064.86 51.84 1063.60 52.78
  Q 1021.86 83.93 988.60 122.13
  Q 909.34 213.17 891.02 333.58
  Q 890.04 339.99 889.45 346.55
  Q 889.32 348.06 888.86 349.22
  C 888.00 351.40 888.52 353.61 888.01 355.89
  C 887.60 357.71 887.82 359.48 887.63 361.35
  Q 886.30 374.28 885.88 389.38
  Q 885.31 410.21 886.30 428.13
  L 887.10 440.22
  Q 887.22 440.15 887.35 440.07
  Q 887.48 451.68 888.25 454.75
  Q 888.88 457.28 888.72 460.75
  Q 888.65 462.04 889.50 463.10
  Q 889.47 463.27 889.55 463.36
  Q 889.39 467.98 890.05 471.26
  Q 890.54 473.73 890.74 475.66
  Q 891.09 479.01 891.10 479.09
  Q 903.87 570.98 942.17 655.34
  Q 943.82 658.98 945.86 663.11
  Q 949.36 670.18 952.61 679.19
  Q 958.86 696.49 962.11 712.73
  Q 962.14 712.91 962.23 712.98
  Q 962.35 713.08 962.52 713.06
  Q 962.89 712.83 962.79 713.20
  Q 962.49 713.13 962.36 713.52
  Q 962.29 713.72 962.35 714.02
  Q 963.70 720.38 964.03 726.88
  Q 964.05 727.25 964.41 727.55
  Q 964.41 728.10 964.52 728.21
  L 964.92 736.35
  Q 964.87 742.66 964.44 749.07
  Q 964.31 751.01 963.94 752.91
  C 963.61 754.61 963.67 756.24 963.32 758.03
  Q 956.69 792.30 923.99 803.66
  Q 911.33 808.06 896.00 809.62
  Q 891.72 810.06 878.53 809.60
  Q 849.66 805.73 829.74 785.05
  Q 819.63 774.55 812.49 761.95
  Q 804.45 747.74 800.97 736.95
  Q 798.30 728.69 795.94 718.06
  Q 782.03 655.49 775.48 593.96
  Q 770.63 548.34 771.03 499.62
  Q 771.45 447.90 779.90 397.38
  Q 789.38 340.66 809.90 290.12
  Q 857.88 171.92 960.85 98.84
  Q 1003.57 68.52 1056.21 47.74
  Q 1058.16 46.97 1061.26 46.33
  Q 1061.76 46.22 1062.21 46.45
  Q 1063.91 47.31 1064.39 49.08
  Z"
/>
<path fill="#186e32" d="
  M 593.81 115.07
  C 599.40 126.36 597.82 138.98 591.87 150.34
  Q 590.44 153.07 588.21 155.12
  Q 534.65 204.09 492.51 261.49
  C 464.89 299.12 440.71 340.59 422.63 383.91
  Q 414.91 402.40 409.68 420.40
  Q 408.75 423.60 408.13 426.89
  Q 407.87 428.25 407.39 426.95
  C 398.60 402.96 387.96 379.62 375.61 357.19
  C 339.87 292.26 290.74 232.31 236.60 179.22
  Q 180.17 123.90 116.16 77.34
  C 111.49 73.94 112.67 65.20 119.19 65.27
  C 121.21 65.30 123.16 64.90 125.23 64.86
  Q 145.03 64.43 165.76 63.84
  Q 175.24 63.56 185.26 63.49
  C 199.78 63.39 214.49 62.77 229.00 62.77
  Q 255.98 62.76 282.98 62.75
  C 296.62 62.75 310.46 63.48 324.22 63.49
  C 331.89 63.50 339.50 63.90 348.02 64.14
  C 383.25 65.16 417.82 67.15 452.01 70.20
  Q 488.60 73.46 521.47 79.33
  Q 533.51 81.48 546.16 84.68
  C 563.53 89.09 585.33 97.93 593.81 115.07
  Z
  M 295.33 235.56
  Q 306.72 249.24 317.35 262.63
  Q 337.13 287.56 354.65 314.12
  Q 385.59 361.06 406.84 413.64
  Q 407.16 414.41 407.40 413.61
  Q 410.04 405.09 413.20 396.61
  Q 420.35 377.48 429.13 359.05
  Q 442.76 330.40 459.28 303.45
  Q 497.55 241.66 547.68 189.18
  Q 566.48 169.49 577.81 159.16
  Q 584.95 152.65 586.79 150.26
  Q 590.26 145.74 591.95 138.84
  C 597.66 115.59 580.12 101.59 561.09 93.83
  Q 549.06 88.92 528.79 84.92
  Q 507.28 80.68 485.50 78.03
  Q 452.91 74.05 419.99 71.88
  Q 380.21 69.26 367.58 69.06
  C 360.22 68.94 352.52 68.33 345.07 68.14
  Q 279.36 66.47 221.81 67.09
  Q 187.22 67.46 124.50 68.98
  Q 122.35 69.03 119.89 69.42
  Q 118.62 69.62 117.96 70.43
  C 116.70 72.01 118.18 73.67 119.46 74.60
  Q 207.05 138.07 281.13 219.85
  Q 288.48 227.96 295.33 235.56
  Z"
/>
<path fill="#42bb5a" d="
  M 459.28 303.45
  Q 376.33 272.49 295.33 235.56
  Q 288.48 227.96 281.13 219.85
  Q 207.05 138.07 119.46 74.60
  C 118.18 73.67 116.70 72.01 117.96 70.43
  Q 118.62 69.62 119.89 69.42
  Q 122.35 69.03 124.50 68.98
  Q 187.22 67.46 221.81 67.09
  Q 279.36 66.47 345.07 68.14
  C 352.52 68.33 360.22 68.94 367.58 69.06
  Q 380.21 69.26 419.99 71.88
  Q 452.91 74.05 485.50 78.03
  Q 507.28 80.68 528.79 84.92
  Q 549.06 88.92 561.09 93.83
  C 580.12 101.59 597.66 115.59 591.95 138.84
  Q 590.26 145.74 586.79 150.26
  Q 584.95 152.65 577.81 159.16
  Q 566.48 169.49 547.68 189.18
  Q 497.55 241.66 459.28 303.45
  Z"
/>
<path fill="#d56f1b" d="
  M 1055.02 199.68
  Q 1067.49 212.28 1072.60 220.40
  Q 1145.37 335.88 1218.12 451.38
  C 1219.13 452.98 1219.42 454.77 1220.36 456.26
  Q 1289.41 565.91 1358.46 675.57
  Q 1363.79 684.03 1363.98 684.43
  Q 1366.48 689.63 1365.81 694.97
  Q 1364.73 688.72 1362.83 685.70
  Q 1289.56 569.36 1216.31 453.00
  Q 1145.77 340.89 1075.16 228.82
  Q 1068.82 218.77 1064.76 214.10
  C 1051.93 199.34 1035.25 190.01 1015.34 193.03
  C 1002.78 194.93 990.33 201.47 980.27 209.37
  C 950.38 232.82 933.84 267.05 925.43 304.25
  Q 919.67 329.72 918.04 358.25
  Q 916.55 384.49 918.07 410.25
  Q 918.46 416.79 918.89 423.69
  Q 919.32 426.97 919.65 430.73
  Q 924.95 490.79 938.82 547.06
  Q 941.35 557.35 943.89 565.93
  C 960.83 623.22 990.11 680.25 1034.22 718.91
  Q 1080.34 759.34 1142.21 769.06
  Q 1161.63 772.11 1179.05 772.26
  Q 1203.12 772.48 1227.73 768.68
  Q 1252.27 764.89 1276.48 757.66
  Q 1275.88 758.87 1274.10 759.22
  Q 1271.49 759.72 1271.43 759.74
  Q 1265.48 761.48 1259.51 763.15
  Q 1257.47 763.72 1255.29 764.05
  C 1252.26 764.52 1249.39 765.64 1246.37 766.09
  C 1242.96 766.59 1239.78 767.59 1236.35 768.13
  Q 1221.41 770.48 1211.36 771.65
  Q 1198.26 773.16 1190.91 773.16
  C 1180.35 773.14 1168.91 773.45 1158.32 772.48
  Q 1152.13 771.91 1144.50 770.89
  Q 1104.52 765.51 1069.88 746.61
  Q 1030.47 725.11 1000.22 686.60
  Q 988.17 671.25 977.42 653.05
  Q 971.19 642.51 966.94 633.82
  Q 953.53 606.39 942.48 574.41
  Q 941.54 573.14 940.85 570.62
  Q 920.87 498.60 914.84 425.09
  Q 914.75 423.94 914.51 417.92
  C 914.39 414.81 913.87 411.64 913.81 408.51
  Q 913.67 400.01 913.32 391.56
  C 912.91 381.76 913.55 372.30 913.73 362.59
  C 913.82 357.79 914.38 353.00 914.73 348.25
  Q 916.66 321.34 923.51 294.26
  Q 928.61 274.10 937.49 255.31
  Q 938.89 252.37 940.59 249.99
  Q 945.10 242.90 949.72 236.01
  Q 953.19 230.86 956.65 226.72
  Q 961.93 220.42 964.42 217.85
  Q 968.36 213.76 975.14 208.14
  Q 987.95 197.49 1002.75 191.93
  Q 1003.42 191.68 1004.52 191.50
  Q 1006.74 191.13 1005.92 190.13
  Q 1014.57 187.56 1021.75 187.74
  Q 1040.59 188.23 1055.02 199.68
  Z"
/>
<path fill="#fabd4a" d="
  M 1005.92 190.13
  Q 1006.74 191.13 1004.52 191.50
  Q 1003.42 191.68 1002.75 191.93
  Q 987.95 197.49 975.14 208.14
  Q 968.36 213.76 964.42 217.85
  Q 961.93 220.42 956.65 226.72
  Q 953.19 230.86 949.72 236.01
  Q 945.10 242.90 940.59 249.99
  Q 949.85 231.77 964.07 217.06
  C 975.44 205.30 990.08 194.82 1005.92 190.13
  Z"
/>
<path fill="#fabd4a" d="
  M 1216.31 453.00
  L 1215.88 453.35
  Q 1215.50 453.67 1215.00 453.59
  Q 1212.74 453.21 1209.50 453.09
  Q 1170.62 451.67 1129.15 448.48
  C 1125.92 448.23 1122.75 448.21 1119.52 447.74
  Q 1118.01 447.52 1116.26 447.39
  Q 1017.06 439.62 918.89 423.69
  Q 918.46 416.79 918.07 410.25
  Q 916.55 384.49 918.04 358.25
  Q 919.67 329.72 925.43 304.25
  C 933.84 267.05 950.38 232.82 980.27 209.37
  C 990.33 201.47 1002.78 194.93 1015.34 193.03
  C 1035.25 190.01 1051.93 199.34 1064.76 214.10
  Q 1068.82 218.77 1075.16 228.82
  Q 1145.77 340.89 1216.31 453.00
  Z"
/>
<path fill="#fabd4a" d="
  M 1055.02 199.68
  Q 1067.39 208.80 1073.89 219.13
  Q 1218.58 448.89 1363.26 678.66
  Q 1367.66 685.65 1368.69 689.12
  C 1375.32 711.48 1353.08 729.19 1335.22 738.40
  Q 1288.95 762.26 1233.66 771.84
  Q 1195.72 778.41 1158.93 775.37
  C 1114.42 771.68 1072.45 755.51 1037.77 727.25
  C 1013.03 707.08 992.73 681.72 976.62 653.65
  Q 955.01 615.98 942.48 574.41
  Q 953.53 606.39 966.94 633.82
  Q 971.19 642.51 977.42 653.05
  Q 988.17 671.25 1000.22 686.60
  Q 1030.47 725.11 1069.88 746.61
  Q 1104.52 765.51 1144.50 770.89
  Q 1152.13 771.91 1158.32 772.48
  C 1168.91 773.45 1180.35 773.14 1190.91 773.16
  Q 1198.26 773.16 1211.36 771.65
  Q 1221.41 770.48 1236.35 768.13
  C 1239.78 767.59 1242.96 766.59 1246.37 766.09
  C 1249.39 765.64 1252.26 764.52 1255.29 764.05
  Q 1257.47 763.72 1259.51 763.15
  Q 1265.48 761.48 1271.43 759.74
  Q 1271.49 759.72 1274.10 759.22
  Q 1275.88 758.87 1276.48 757.66
  Q 1303.91 749.56 1329.86 736.58
  C 1342.23 730.40 1355.97 721.76 1362.69 709.15
  Q 1366.09 702.75 1365.81 694.97
  Q 1366.48 689.63 1363.98 684.43
  Q 1363.79 684.03 1358.46 675.57
  Q 1289.41 565.91 1220.36 456.26
  C 1219.42 454.77 1219.13 452.98 1218.12 451.38
  Q 1145.37 335.88 1072.60 220.40
  Q 1067.49 212.28 1055.02 199.68
  Z"
/>
<path fill="#40a74c" d="
  M 295.33 235.56
  Q 376.33 272.49 459.28 303.45
  Q 442.76 330.40 429.13 359.05
  Q 420.35 377.48 413.20 396.61
  Q 410.04 405.09 407.40 413.61
  Q 407.16 414.41 406.84 413.64
  Q 385.59 361.06 354.65 314.12
  Q 337.13 287.56 317.35 262.63
  Q 306.72 249.24 295.33 235.56
  Z"
/>
<path fill="#442e92" d="
  M 637.99 363.14
  Q 693.00 379.01 748.92 392.11
  Q 746.88 402.09 745.23 413.00
  Q 745.03 414.27 744.64 415.44
  C 744.26 416.57 744.43 417.64 744.25 418.84
  Q 742.39 430.63 741.13 442.00
  Q 740.74 445.48 740.23 449.00
  Q 739.67 452.85 739.73 456.13
  Q 739.77 458.13 739.10 460.03
  Q 738.92 460.53 738.97 461.06
  Q 739.21 463.77 738.52 466.24
  C 737.79 468.86 739.06 471.46 738.07 473.96
  Q 737.57 475.23 737.65 476.63
  Q 737.90 480.96 737.24 485.56
  Q 736.85 488.25 736.95 490.77
  C 737.04 493.10 736.52 495.38 736.43 497.74
  Q 735.03 535.28 736.98 574.83
  C 737.13 578.00 737.92 583.10 737.72 587.53
  C 737.65 589.07 738.38 590.26 738.41 591.80
  Q 738.56 599.30 739.56 606.43
  C 739.88 608.73 739.37 610.91 740.21 613.14
  C 740.57 614.12 740.30 615.25 740.42 616.31
  Q 744.05 647.08 747.00 662.26
  Q 748.66 670.85 750.18 679.59
  Q 750.54 681.63 750.61 683.85
  Q 750.66 685.27 751.00 686.63
  Q 751.32 687.97 751.40 689.35
  Q 751.85 697.78 752.30 706.04
  C 752.63 712.17 751.86 718.02 751.91 724.01
  C 751.94 726.69 750.84 729.02 751.38 731.69
  Q 751.52 732.33 751.17 732.89
  Q 750.48 734.02 750.57 735.30
  Q 750.65 736.50 750.43 737.79
  Q 748.81 747.35 746.27 755.72
  C 739.74 777.18 725.62 794.76 703.87 801.41
  Q 700.28 802.51 696.71 803.49
  C 695.85 803.72 695.17 803.50 694.36 803.66
  C 686.27 805.32 677.58 805.35 669.41 804.80
  Q 638.10 802.72 618.11 779.30
  C 603.10 761.72 595.46 737.31 592.18 714.15
  Q 588.97 691.52 589.73 672.70
  Q 590.02 665.74 590.12 658.47
  Q 590.32 644.11 590.52 629.04
  Q 590.80 607.24 593.74 570.75
  Q 598.74 508.95 612.60 448.52
  Q 622.67 404.67 637.99 363.14
  Z"
/>
<path fill="#fbbf18" d="
  M 918.89 423.69
  Q 1017.06 439.62 1116.26 447.39
  Q 1118.01 447.52 1119.52 447.74
  C 1122.75 448.21 1125.92 448.23 1129.15 448.48
  Q 1170.62 451.67 1209.50 453.09
  Q 1212.74 453.21 1215.00 453.59
  Q 1215.50 453.67 1215.88 453.35
  L 1216.31 453.00
  Q 1289.56 569.36 1362.83 685.70
  Q 1364.73 688.72 1365.81 694.97
  Q 1366.09 702.75 1362.69 709.15
  C 1355.97 721.76 1342.23 730.40 1329.86 736.58
  Q 1303.91 749.56 1276.48 757.66
  Q 1252.27 764.89 1227.73 768.68
  Q 1203.12 772.48 1179.05 772.26
  Q 1161.63 772.11 1142.21 769.06
  Q 1080.34 759.34 1034.22 718.91
  C 990.11 680.25 960.83 623.22 943.89 565.93
  Q 941.35 557.35 938.82 547.06
  Q 924.95 490.79 919.65 430.73
  Q 919.32 426.97 918.89 423.69
  Z"
/>
<path fill="#6e1122" d="
  M 886.30 428.13
  Q 887.80 433.60 887.10 440.22
  L 886.30 428.13
  Z"
/>
<path fill="#6e1122" d="
  M 887.35 440.07
  Q 888.59 446.47 888.27 452.86
  C 888.23 453.65 888.38 454.16 888.80 454.82
  Q 889.06 455.24 889.09 455.73
  L 889.50 463.10
  Q 888.65 462.04 888.72 460.75
  Q 888.88 457.28 888.25 454.75
  Q 887.48 451.68 887.35 440.07
  Z"
/>
<path fill="#6e1122" d="
  M 889.55 463.36
  Q 890.31 465.95 890.23 469.51
  Q 890.20 470.71 890.58 471.88
  Q 890.96 473.03 891.11 474.20
  Q 892.41 485.03 894.21 495.73
  Q 904.18 554.79 925.38 612.52
  Q 934.64 637.71 943.47 655.65
  Q 948.89 666.67 951.66 673.98
  Q 957.96 690.56 961.82 708.15
  Q 962.45 711.03 962.52 713.06
  Q 962.35 713.08 962.23 712.98
  Q 962.14 712.91 962.11 712.73
  Q 958.86 696.49 952.61 679.19
  Q 949.36 670.18 945.86 663.11
  Q 943.82 658.98 942.17 655.34
  Q 903.87 570.98 891.10 479.09
  Q 891.09 479.01 890.74 475.66
  Q 890.54 473.73 890.05 471.26
  Q 889.39 467.98 889.55 463.36
  Z"
/>
<path fill="#1b3971" d="
  M 565.03 511.35
  Q 564.94 510.36 565.28 509.49
  Q 565.95 507.79 565.70 505.82
  Q 565.63 505.18 566.19 504.90
  Q 566.23 504.88 566.29 504.89
  Q 566.67 504.95 566.63 505.34
  Q 566.37 508.51 565.43 511.40
  Q 565.11 512.36 565.03 511.35
  Z"
/>
<path fill="#6e1122" d="
  M 962.79 713.20
  Q 964.37 720.28 964.41 727.55
  Q 964.05 727.25 964.03 726.88
  Q 963.70 720.38 962.35 714.02
  Q 962.29 713.72 962.36 713.52
  Q 962.49 713.13 962.79 713.20
  Z"
/>
<path fill="#6e1122" d="
  M 964.52 728.21
  Q 964.67 728.19 964.83 728.33
  Q 965.01 728.48 965.01 728.72
  L 964.92 736.35
  L 964.52 728.21
  Z"
/>
<path fill="#78777c" d="
  M 0.00 951.40
  L 0.00 901.50
  L 28.96 901.49
  A 0.26 0.26 0.0 0 0 29.22 901.23
  L 29.22 861.32
  A 0.61 0.61 0.0 0 1 29.67 860.73
  L 95.16 842.70
  A 0.33 0.32 -8.1 0 1 95.58 843.01
  L 95.57 900.78
  A 0.71 0.71 0.0 0 0 96.28 901.49
  L 143.76 901.49
  Q 144.28 901.49 144.28 902.01
  L 144.28 950.99
  Q 144.28 951.51 143.76 951.51
  L 96.02 951.51
  A 0.44 0.43 0.0 0 0 95.58 951.94
  Q 95.55 989.77 95.60 1031.61
  Q 95.61 1043.52 98.17 1052.29
  Q 102.59 1067.43 118.50 1068.74
  Q 130.00 1069.70 141.91 1067.21
  Q 142.47 1067.10 142.47 1067.67
  L 142.94 1117.81
  Q 142.94 1118.42 142.37 1118.62
  Q 137.87 1120.25 132.72 1121.22
  Q 119.43 1123.72 104.23 1124.26
  Q 85.32 1124.93 69.43 1119.02
  Q 41.70 1108.71 33.84 1079.76
  Q 30.95 1069.12 30.04 1059.63
  Q 29.14 1050.32 29.17 1039.77
  Q 29.29 996.04 29.18 951.96
  A 0.47 0.47 0.0 0 0 28.71 951.50
  L 0.00 951.40
  Z"
/>
<path fill="#78777c" d="
  M 950.60 952.14
  Q 950.56 996.55 950.66 1033.08
  C 950.68 1040.38 951.53 1048.84 954.41 1055.65
  C 959.29 1067.17 969.75 1069.40 981.09 1069.02
  Q 989.81 1068.72 997.00 1067.23
  Q 997.60 1067.11 997.60 1067.72
  L 997.86 1117.81
  Q 997.86 1118.28 997.43 1118.48
  Q 995.37 1119.44 992.83 1120.05
  Q 973.46 1124.66 952.09 1124.21
  C 929.91 1123.74 906.36 1115.06 895.19 1095.08
  C 886.98 1080.40 884.34 1061.95 884.29 1045.50
  Q 884.16 997.76 884.29 952.04
  Q 884.29 951.50 883.75 951.50
  L 855.69 951.50
  Q 855.12 951.50 855.12 950.94
  L 855.12 902.06
  Q 855.12 901.49 855.69 901.49
  L 883.75 901.49
  Q 884.25 901.49 884.25 901.00
  L 884.26 861.49
  A 0.87 0.86 82.9 0 1 884.89 860.67
  L 950.18 842.70
  A 0.33 0.33 0.0 0 1 950.60 843.02
  L 950.62 900.93
  Q 950.62 901.49 951.18 901.49
  L 998.77 901.50
  Q 999.29 901.50 999.29 902.02
  L 999.30 950.98
  Q 999.30 951.51 998.77 951.51
  L 951.24 951.51
  Q 950.60 951.51 950.60 952.14
  Z"
/>
<path fill="#78777c" d="
  M 561.39 973.59
  C 562.13 941.25 526.19 940.81 503.53 944.51
  Q 480.56 948.26 461.78 959.14
  A 0.45 0.45 0.0 0 1 461.12 958.87
  L 448.96 916.28
  Q 448.78 915.66 449.36 915.36
  C 480.16 899.61 515.28 894.08 549.71 896.89
  Q 559.51 897.69 569.99 900.60
  Q 611.55 912.13 624.02 952.75
  C 628.29 966.64 629.27 981.38 629.24 996.16
  Q 629.16 1036.06 629.22 1077.16
  C 629.24 1087.51 629.84 1098.13 630.89 1108.24
  Q 631.46 1113.65 632.59 1119.05
  A 0.59 0.58 84.3 0 1 632.02 1119.75
  L 571.78 1119.75
  A 0.28 0.27 85.0 0 1 571.51 1119.52
  L 567.62 1098.16
  A 0.70 0.70 0.0 0 0 566.41 1097.83
  Q 548.82 1118.17 521.67 1123.08
  C 496.62 1127.61 470.11 1122.98 451.92 1104.29
  Q 435.93 1087.85 433.52 1064.27
  Q 432.94 1058.55 433.40 1051.75
  C 436.24 1009.43 469.42 988.02 506.99 979.72
  Q 526.14 975.49 546.01 974.63
  Q 553.39 974.32 560.74 974.23
  Q 561.38 974.22 561.39 973.59
  Z
  M 563.10 1016.59
  C 542.45 1016.85 504.13 1019.18 500.45 1046.47
  C 498.01 1064.59 508.79 1077.15 527.16 1076.93
  C 543.44 1076.72 560.40 1064.99 562.97 1048.31
  Q 563.54 1044.63 563.54 1041.01
  Q 563.56 1029.40 563.58 1017.06
  Q 563.58 1016.58 563.10 1016.59
  Z"
/>
<path fill="#78777c" d="
  M 1544.51 973.65
  C 1545.76 943.36 1513.44 941.06 1491.69 943.81
  Q 1465.92 947.06 1444.83 959.22
  A 0.29 0.29 0.0 0 1 1444.41 959.04
  L 1432.19 916.28
  Q 1432.05 915.77 1432.51 915.52
  Q 1444.06 909.28 1457.12 905.16
  Q 1488.53 895.25 1522.87 896.25
  C 1541.69 896.80 1560.48 900.66 1576.14 910.52
  C 1597.73 924.11 1608.32 946.92 1611.26 972.12
  Q 1612.42 982.05 1612.44 989.98
  Q 1612.54 1037.25 1612.53 1084.64
  Q 1612.53 1088.36 1612.86 1092.23
  Q 1613.17 1095.94 1613.38 1099.72
  Q 1613.80 1107.36 1615.71 1119.19
  Q 1615.79 1119.75 1615.23 1119.75
  L 1555.41 1119.75
  Q 1554.82 1119.75 1554.71 1119.16
  L 1550.88 1098.30
  A 0.80 0.79 59.8 0 0 1549.49 1097.93
  Q 1534.14 1116.16 1509.70 1122.04
  C 1483.75 1128.29 1455.72 1124.13 1436.27 1105.40
  C 1425.33 1094.87 1418.31 1080.06 1416.82 1065.25
  Q 1416.16 1058.78 1416.68 1051.19
  C 1419.17 1014.94 1444.92 993.16 1477.70 983.11
  C 1499.17 976.52 1521.23 974.39 1543.90 974.24
  Q 1544.49 974.23 1544.51 973.65
  Z
  M 1508.32 1021.53
  C 1492.21 1026.51 1481.41 1037.72 1483.62 1055.30
  Q 1485.85 1072.99 1503.96 1076.38
  C 1520.26 1079.43 1536.85 1070.42 1544.06 1055.49
  C 1546.21 1051.05 1546.65 1045.92 1546.68 1041.00
  Q 1546.75 1028.50 1546.75 1017.17
  Q 1546.75 1016.60 1546.18 1016.60
  Q 1537.35 1016.69 1528.75 1017.46
  Q 1518.47 1018.39 1508.32 1021.53
  Z"
/>
<path fill="#78777c" d="
  M 1070.77 1032.98
  C 1073.10 1056.86 1093.21 1068.68 1114.81 1072.35
  Q 1127.54 1074.51 1141.50 1073.68
  Q 1145.81 1073.43 1149.50 1073.18
  Q 1170.98 1071.71 1192.13 1064.63
  Q 1192.64 1064.46 1192.75 1064.99
  L 1201.49 1109.97
  Q 1201.59 1110.49 1201.09 1110.69
  Q 1186.79 1116.35 1172.97 1119.25
  Q 1145.41 1125.04 1116.01 1124.14
  Q 1099.24 1123.63 1083.16 1119.53
  C 1043.67 1109.46 1016.76 1081.59 1008.78 1041.41
  C 996.55 979.95 1025.46 912.72 1091.07 899.07
  Q 1112.51 894.61 1135.30 898.06
  C 1177.73 904.47 1203.51 936.32 1211.11 977.56
  Q 1215.61 1002.02 1211.98 1028.99
  Q 1211.79 1030.41 1211.31 1031.83
  Q 1211.17 1032.22 1210.76 1032.22
  L 1071.45 1032.22
  Q 1070.69 1032.22 1070.77 1032.98
  Z
  M 1106.98 941.93
  Q 1092.07 944.05 1082.81 955.17
  Q 1072.61 967.41 1070.41 985.13
  Q 1070.33 985.81 1071.02 985.81
  L 1150.26 985.82
  A 0.42 0.41 -90.0 0 0 1150.67 985.40
  C 1150.77 965.37 1140.63 944.60 1118.63 942.07
  Q 1116.10 941.78 1113.85 941.63
  Q 1110.67 941.41 1106.98 941.93
  Z"
/>
<path fill="#78777c" d="
  M 1398.44 1065.16
  Q 1399.72 1064.68 1400.89 1064.13
  A 0.23 0.23 0.0 0 1 1401.22 1064.30
  L 1409.13 1113.48
  Q 1409.22 1114.00 1408.74 1114.22
  Q 1401.64 1117.43 1393.25 1119.38
  Q 1375.40 1123.53 1355.13 1124.21
  Q 1329.75 1125.06 1307.98 1118.78
  C 1275.67 1109.47 1250.75 1087.20 1239.74 1055.26
  Q 1229.41 1025.24 1234.62 991.29
  Q 1236.15 981.30 1239.42 971.95
  C 1252.44 934.71 1282.13 909.42 1320.53 900.75
  Q 1362.21 891.34 1403.00 902.89
  Q 1405.97 903.73 1409.17 904.84
  Q 1409.66 905.01 1409.55 905.51
  L 1399.06 954.94
  A 0.43 0.43 0.0 0 1 1398.48 955.25
  C 1385.17 949.82 1369.69 948.08 1355.73 949.05
  C 1328.29 950.96 1308.10 969.25 1303.58 996.13
  Q 1302.12 1004.85 1302.80 1016.15
  C 1304.23 1040.04 1317.63 1059.87 1340.33 1067.66
  C 1352.29 1071.77 1365.17 1071.78 1378.07 1070.19
  Q 1388.22 1068.94 1398.44 1065.16
  Z"
/>
<path fill="#78777c" d="
  M 266.14 1046.34
  Q 266.15 1046.24 266.52 1045.04
  Q 288.54 973.52 310.59 901.99
  Q 310.74 901.49 311.26 901.49
  L 375.86 901.49
  Q 376.51 901.49 376.29 902.10
  L 299.99 1118.91
  Q 299.70 1119.74 298.82 1119.74
  L 232.15 1119.75
  Q 231.48 1119.75 231.26 1119.11
  L 154.80 901.90
  Q 154.66 901.49 155.09 901.49
  L 219.96 901.49
  Q 220.45 901.49 220.59 901.96
  Q 242.82 974.22 265.04 1046.43
  Q 265.80 1048.88 266.14 1046.34
  Z"
/>
<path fill="#78777c" d="
  M 755.50 956.24
  A 0.42 0.42 0.0 0 0 755.19 955.53
  L 660.48 955.53
  Q 659.94 955.53 659.94 954.98
  L 659.94 902.03
  Q 659.94 901.49 660.47 901.49
  L 838.01 901.49
  A 0.39 0.39 0.0 0 1 838.40 901.88
  L 838.40 942.02
  A 1.64 1.60 64.7 0 1 838.05 943.03
  Q 809.03 979.43 780.64 1015.25
  Q 774.39 1023.14 768.15 1030.48
  C 758.42 1041.94 748.35 1053.79 737.50 1064.42
  Q 736.16 1065.74 738.04 1065.74
  L 841.76 1065.74
  A 0.27 0.27 0.0 0 1 842.03 1066.01
  L 842.04 1119.22
  A 0.52 0.51 90.0 0 1 841.53 1119.74
  L 653.00 1119.73
  A 0.74 0.73 -0.0 0 1 652.26 1119.00
  L 652.28 1081.47
  Q 652.28 1080.92 652.63 1080.48
  Q 683.89 1041.37 714.55 1002.84
  C 727.40 986.70 741.60 971.35 755.50 956.24
  Z"
/>
</svg>
